# File created by Blade
# Date/Time:  Thu Sep 25 19:36:54 2014
# Frame Rate: 120.000 fps
#------------------------------------------------------
:FULLY-SPECIFIED
:DEGREES
717
root 1.035116 34.055698 -1.775412 102.888324 0.404621 -31.619462
Spine -36.481684 -2.901828 12.957209
Head -51.551111 28.659919 20.078221
LeftShoulder -17.856690 0.866763 46.719603
LeftArm 53.185740 -50.385193 -17.944727
LeftForeArm 17.265184 -0.000000 16.626515
LeftHand -28.712949 -0.000000 -0.107530
LeftHandThumb1 -26.253704 0.000000 33.147579
RightShoulder -26.779879 1.595963 -31.465954
RightArm -31.881509 -21.622969 53.039280
RightForeArm -45.738648 -0.000000 10.752372
RightHand -1.681855 0.000000 22.934030
RightHandThumb1 -24.326973 -0.000000 -32.862282
LeftUpLeg -101.136586 25.409758 -5.044601
LeftLeg -11.137999 -0.000000 0.000000
LeftFoot 0.561800 9.619325 -11.161315
LeftToeBase 6.617913 -0.000000 -0.000000
RightUpLeg 19.414014 19.420543 -30.769194
RightLeg 99.431796 -0.000000 -0.000000
RightFoot 30.649443 -17.199187 18.792443
RightToeBase 9.358483 -0.000000 -0.000000
718
root 1.030464 34.050977 -1.780636 102.824888 0.402020 -31.616252
Spine -36.455197 -2.881504 12.957047
Head -51.540637 28.618590 20.023613
LeftShoulder -17.859652 0.888154 46.686407
LeftArm 53.338435 -50.426619 -18.143945
LeftForeArm 17.277121 -0.000000 16.618062
LeftHand -28.613832 -0.000000 -0.287333
LeftHandThumb1 -26.253704 0.000000 33.147579
RightShoulder -26.762414 1.665410 -31.499021
RightArm -31.966338 -21.587491 53.029911
RightForeArm -45.733529 -0.000000 10.763546
RightHand -1.642043 -0.000000 22.804113
RightHandThumb1 -24.326973 -0.000000 -32.862282
LeftUpLeg -101.042362 25.403726 -4.992315
LeftLeg -11.196068 -0.000000 0.000000
LeftFoot 0.628352 9.726366 -10.953705
LeftToeBase 6.481268 -0.000000 -0.000000
RightUpLeg 19.398344 19.429047 -30.810495
RightLeg 99.422988 -0.000000 -0.000000
RightFoot 30.598669 -17.211076 18.919888
RightToeBase 9.250569 -0.000000 -0.000000
719
root 1.025767 34.044926 -1.786385 102.765761 0.392047 -31.604238
Spine -36.443243 -2.885834 12.977088
Head -51.523831 28.591142 19.937523
LeftShoulder -17.806042 0.749507 46.826502
LeftArm 53.199723 -50.244564 -18.300930
LeftForeArm 17.349991 -0.000000 16.712386
LeftHand -28.820690 -0.000000 -0.260103
LeftHandThumb1 -26.253704 0.000000 33.147579
RightShoulder -26.784785 1.620468 -31.530808
RightArm -31.883936 -21.556311 53.028841
RightForeArm -45.731254 -0.000000 10.774812
RightHand -1.618819 -0.000000 22.659151
RightHandThumb1 -24.326973 -0.000000 -32.862282
LeftUpLeg -100.929788 25.393296 -4.910299
LeftLeg -11.271721 -0.000000 0.000000
LeftFoot 0.693919 9.879866 -10.705980
LeftToeBase 6.328340 -0.000000 -0.000000
RightUpLeg 19.385269 19.425592 -30.858635
RightLeg 99.394658 -0.000000 -0.000000
RightFoot 30.582452 -17.277786 19.037252
RightToeBase 9.366438 -0.000000 -0.000000
720
root 1.020701 34.036960 -1.790089 102.697137 0.371316 -31.592084
Spine -36.441415 -2.885754 12.967524
Head -51.473369 28.621493 19.886821
LeftShoulder -17.773837 0.805655 46.846032
LeftArm 53.279564 -50.286439 -18.542269
LeftForeArm 17.393526 -0.000000 16.770632
LeftHand -28.921911 -0.000000 -0.486476
LeftHandThumb1 -26.253704 0.000000 33.147579
RightShoulder -26.812783 1.567510 -31.523962
RightArm -31.820553 -21.505718 52.977890
RightForeArm -45.730948 0.000000 10.830926
RightHand -1.618823 0.000000 22.698441
RightHandThumb1 -24.326973 -0.000000 -32.862282
LeftUpLeg -100.749519 25.391446 -4.736573
LeftLeg -11.358907 -0.000000 0.000000
LeftFoot 0.726417 10.198765 -10.357873
LeftToeBase 6.276996 -0.000000 -0.000000
RightUpLeg 19.387173 19.433464 -30.900659
RightLeg 99.356348 -0.000000 -0.000000
RightFoot 30.552543 -17.327614 19.151090
RightToeBase 9.270662 -0.000000 -0.000000
721
root 1.013923 34.027845 -1.790946 102.615578 0.352454 -31.585825
Spine -36.444945 -2.914727 12.968487
Head -51.372302 28.717578 19.910865
LeftShoulder -17.815100 0.992663 46.744282
LeftArm 53.585613 -50.418652 -18.759981
LeftForeArm 17.377814 -0.000000 16.640403
LeftHand -28.845657 -0.000000 -0.613597
LeftHandThumb1 -26.253704 0.000000 33.147579
RightShoulder -26.815209 1.493247 -31.460356
RightArm -31.705354 -21.438057 52.873849
RightForeArm -45.775458 -0.000000 10.883723
RightHand -1.609847 -0.000000 22.844534
RightHandThumb1 -24.326973 -0.000000 -32.862282
LeftUpLeg -100.567375 25.393900 -4.602621
LeftLeg -11.471422 -0.000000 0.000000
LeftFoot 0.809119 10.390075 -10.116025
LeftToeBase 6.101191 -0.000000 -0.000000
RightUpLeg 19.394974 19.445835 -30.922765
RightLeg 99.320141 -0.000000 -0.000000
RightFoot 30.483976 -17.352915 19.161486
RightToeBase 9.219839 -0.000000 -0.000000
722
root 1.005825 34.017538 -1.792185 102.540061 0.332792 -31.586327
Spine -36.471844 -2.941864 12.992872
Head -51.233702 28.780892 19.905710
LeftShoulder -17.799184 1.070917 46.702688
LeftArm 53.600949 -50.388791 -18.777300
LeftForeArm 17.261154 -0.000000 16.597706
LeftHand -28.883464 -0.000000 -0.672156
LeftHandThumb1 -26.253704 0.000000 33.147579
RightShoulder -26.815109 1.501104 -31.473209
RightArm -31.660136 -21.504162 52.850382
RightForeArm -45.765457 -0.000000 10.917885
RightHand -1.578812 -0.000000 22.910038
RightHandThumb1 -24.326973 -0.000000 -32.862282
LeftUpLeg -100.390689 25.399226 -4.482085
LeftLeg -11.601344 -0.000000 0.000000
LeftFoot 0.868340 10.620169 -9.802357
LeftToeBase 6.024566 -0.000000 -0.000000
RightUpLeg 19.396417 19.455863 -30.951663
RightLeg 99.281195 -0.000000 -0.000000
RightFoot 30.488036 -17.338185 19.054392
RightToeBase 9.032607 -0.000000 -0.000000
723
root 0.998601 34.007604 -1.794839 102.465186 0.323550 -31.552479
Spine -36.514039 -2.981290 13.040604
Head -51.066517 28.843877 19.905816
LeftShoulder -17.789248 0.893469 46.772270
LeftArm 53.500816 -50.101457 -18.782926
LeftForeArm 17.244520 0.000000 16.565928
LeftHand -28.744754 -0.000000 -0.894082
LeftHandThumb1 -26.253704 0.000000 33.147579
RightShoulder -26.822468 1.488226 -31.498902
RightArm -31.602031 -21.592425 52.840982
RightForeArm -45.788003 0.000000 10.970802
RightHand -1.543798 0.000000 22.899246
RightHandThumb1 -24.326973 -0.000000 -32.862282
LeftUpLeg -100.216590 25.389232 -4.307753
LeftLeg -11.688255 -0.000000 0.000000
LeftFoot 0.884921 10.834458 -9.563568
LeftToeBase 6.067173 -0.000000 -0.000000
RightUpLeg 19.415471 19.447280 -30.946042
RightLeg 99.249456 -0.000000 -0.000000
RightFoot 30.449746 -17.364614 19.021537
RightToeBase 9.167940 -0.000000 -0.000000
724
root 0.987367 33.996552 -1.795445 102.378573 0.295632 -31.571851
Spine -36.551173 -2.992678 13.016131
Head -50.888906 28.919880 20.016648
LeftShoulder -17.746627 0.943678 46.765545
LeftArm 53.397193 -49.976169 -18.617023
LeftForeArm 17.184798 -0.000000 16.467692
LeftHand -28.816592 -0.000000 -0.776286
LeftHandThumb1 -26.253704 0.000000 33.147579
RightShoulder -26.798457 1.510408 -31.432198
RightArm -31.630799 -21.741067 52.811071
RightForeArm -45.725747 -0.000000 11.027906
RightHand -1.490181 -0.000000 23.083353
RightHandThumb1 -24.326973 -0.000000 -32.862282
LeftUpLeg -100.035366 25.426238 -4.204790
LeftLeg -11.787094 -0.000000 0.000000
LeftFoot 0.859368 11.025874 -9.375442
LeftToeBase 6.051931 -0.000000 -0.000000
RightUpLeg 19.410147 19.478750 -30.973575
RightLeg 99.231270 -0.000000 -0.000000
RightFoot 30.439860 -17.313574 18.893490
RightToeBase 9.319708 -0.000000 -0.000000
725
root 0.976547 33.987785 -1.794345 102.312501 0.288224 -31.564681
Spine -36.618804 -3.014659 13.034033
Head -50.712695 28.980650 20.141244
LeftShoulder -17.720060 0.990611 46.773193
LeftArm 53.415705 -49.907740 -18.672066
LeftForeArm 17.244846 0.000000 16.447904
LeftHand -28.720855 0.000000 -0.983501
LeftHandThumb1 -26.253704 0.000000 33.147579
RightShoulder -26.774556 1.566392 -31.377128
RightArm -31.659382 -21.915948 52.776074
RightForeArm -45.584303 -0.000000 11.056869
RightHand -1.503654 -0.000000 23.092917
RightHandThumb1 -24.326973 -0.000000 -32.862282
LeftUpLeg -99.913437 25.423474 -4.155498
LeftLeg -11.864934 -0.000000 0.000000
LeftFoot 0.980922 11.067917 -9.015603
LeftToeBase 5.608851 -0.000000 -0.000000
RightUpLeg 19.391992 19.498835 -30.951662
RightLeg 99.219502 -0.000000 -0.000000
RightFoot 30.517671 -17.274552 18.939746
RightToeBase 9.203580 -0.000000 -0.000000
726
root 0.966730 33.982210 -1.795125 102.250265 0.287852 -31.544155
Spine -36.684615 -3.033236 13.052211
Head -50.551139 28.995347 20.269760
LeftShoulder -17.689954 1.034423 46.773655
LeftArm 53.449969 -49.845088 -18.710964
LeftForeArm 17.300293 -0.000000 16.403725
LeftHand -28.671672 -0.000000 -1.046985
LeftHandThumb1 -26.253704 0.000000 33.147579
RightShoulder -26.754142 1.532558 -31.327998
RightArm -31.598791 -21.960230 52.749528
RightForeArm -45.549185 -0.000000 11.043181
RightHand -1.556371 -0.000000 23.045563
RightHandThumb1 -24.326973 -0.000000 -32.862282
LeftUpLeg -99.847314 25.404824 -4.172756
LeftLeg -11.923208 -0.000000 0.000000
LeftFoot 0.886273 11.072093 -9.132250
LeftToeBase 5.959067 -0.000000 -0.000000
RightUpLeg 19.371852 19.493816 -30.929924
RightLeg 99.222917 -0.000000 -0.000000
RightFoot 30.527548 -17.207885 18.855118
RightToeBase 9.412415 -0.000000 -0.000000
